<svg viewBox="0 0 200 200" xmlns="http://www.w3.org/2000/svg">
  <circle cx="100" cy="100" r="90" fill="#FFF9F0"/>
  <ellipse cx="75" cy="90" rx="11" ry="16" fill="#000"/>
  <ellipse cx="125" cy="90" rx="11" ry="16" fill="#000"/>
  <circle cx="77" cy="88" r="3" fill="#FFF"/>
  <circle cx="127" cy="88" r="3" fill="#FFF"/>
  <path d="M 100 105 L 100 115" stroke="#FFA500" stroke-width="3" fill="none" stroke-linecap="round"/>
  <path d="M 100 115 L 95 120" stroke="#FFA500" stroke-width="2" fill="none" stroke-linecap="round"/>
  <path d="M 100 115 L 105 120" stroke="#FFA500" stroke-width="2" fill="none" stroke-linecap="round"/>
  <path d="M 85 125 Q 100 132 115 125" stroke="#000" stroke-width="2" fill="none" stroke-linecap="round"/>
  <ellipse cx="60" cy="75" rx="15" ry="20" fill="#FFE4B5" transform="rotate(-20 60 75)"/>
  <ellipse cx="140" cy="75" rx="15" ry="20" fill="#FFE4B5" transform="rotate(20 140 75)"/>
  <path d="M 100 50 Q 95 45 100 35 Q 105 30 110 35 Q 115 40 110 45 Q 105 50 100 50" fill="#FF6B6B"/>
  <circle cx="70" cy="145" r="8" fill="#FFA500"/>
  <circle cx="130" cy="145" r="8" fill="#FFA500"/>
</svg>
