<svg viewBox="0 0 200 200" xmlns="http://www.w3.org/2000/svg">
  <circle cx="100" cy="100" r="90" fill="#FFFAF0"/>
  <ellipse cx="72" cy="88" rx="12" ry="17" fill="#000"/>
  <ellipse cx="128" cy="88" rx="12" ry="17" fill="#000"/>
  <circle cx="74" cy="86" r="4" fill="#FFF"/>
  <circle cx="130" cy="86" r="4" fill="#FFF"/>
  <path d="M 100 102 L 100 118" stroke="#FF8C00" stroke-width="4" fill="none" stroke-linecap="round"/>
  <path d="M 100 118 L 93 125" stroke="#FF8C00" stroke-width="3" fill="none" stroke-linecap="round"/>
  <path d="M 100 118 L 107 125" stroke="#FF8C00" stroke-width="3" fill="none" stroke-linecap="round"/>
  <path d="M 100 118 L 100 125" stroke="#FF8C00" stroke-width="3" fill="none" stroke-linecap="round"/>
  <path d="M 82 132 Q 100 140 118 132" stroke="#000" stroke-width="2" fill="none" stroke-linecap="round"/>
  <ellipse cx="55" cy="78" rx="18" ry="25" fill="#FFE4C4" transform="rotate(-25 55 78)"/>
  <ellipse cx="145" cy="78" rx="18" ry="25" fill="#FFE4C4" transform="rotate(25 145 78)"/>
  <path d="M 90 50 Q 100 40 110 50 L 105 55 Q 100 50 95 55 Z" fill="#FF4444"/>
  <path d="M 95 58 Q 100 62 105 58" fill="#FF6B6B"/>
  <circle cx="65" cy="150" r="9" fill="#FF8C00"/>
  <circle cx="135" cy="150" r="9" fill="#FF8C00"/>
</svg>
