<svg viewBox="0 0 200 200" xmlns="http://www.w3.org/2000/svg">
  <circle cx="100" cy="100" r="90" fill="#FFFEF7"/>
  <ellipse cx="70" cy="85" rx="13" ry="18" fill="#000"/>
  <ellipse cx="130" cy="85" rx="13" ry="18" fill="#000"/>
  <circle cx="72" cy="82" r="4" fill="#FFF"/>
  <circle cx="132" cy="82" r="4" fill="#FFF"/>
  <path d="M 100 100 L 100 120" stroke="#FFB347" stroke-width="5" fill="none" stroke-linecap="round"/>
  <path d="M 100 120 L 90 128" stroke="#FFB347" stroke-width="3" fill="none" stroke-linecap="round"/>
  <path d="M 100 120 L 110 128" stroke="#FFB347" stroke-width="3" fill="none" stroke-linecap="round"/>
  <path d="M 80 135 Q 100 145 120 135" stroke="#000" stroke-width="3" fill="none" stroke-linecap="round"/>
  <ellipse cx="50" cy="75" rx="20" ry="28" fill="#FFE4B5" transform="rotate(-30 50 75)"/>
  <ellipse cx="150" cy="75" rx="20" ry="28" fill="#FFE4B5" transform="rotate(30 150 75)"/>
  <path d="M 85 45 Q 90 35 95 38 Q 100 35 105 38 Q 110 35 115 45 L 110 50 Q 105 45 100 48 Q 95 45 90 50 Z" fill="#DC143C"/>
  <ellipse cx="100" cy="55" rx="8" ry="5" fill="#FF6347"/>
  <circle cx="68" cy="155" r="10" fill="#FFB347"/>
  <circle cx="132" cy="155" r="10" fill="#FFB347"/>
  <path d="M 55 70 Q 50 65 55 60" stroke="#FFD700" stroke-width="2" fill="none" stroke-linecap="round"/>
  <path d="M 145 70 Q 150 65 145 60" stroke="#FFD700" stroke-width="2" fill="none" stroke-linecap="round"/>
</svg>
