<svg viewBox="0 0 200 200" xmlns="http://www.w3.org/2000/svg">
  <circle cx="100" cy="100" r="90" fill="#F5E6D3"/>
  <ellipse cx="75" cy="85" rx="12" ry="18" fill="#8B4513"/>
  <ellipse cx="125" cy="85" rx="12" ry="18" fill="#8B4513"/>
  <circle cx="75" cy="85" r="6" fill="#000"/>
  <circle cx="125" cy="85" r="6" fill="#000"/>
  <circle cx="77" cy="83" r="2" fill="#FFF"/>
  <circle cx="127" cy="83" r="2" fill="#FFF"/>
  <ellipse cx="100" cy="110" rx="35" ry="25" fill="#E8B4A0"/>
  <ellipse cx="90" cy="110" rx="4" ry="6" fill="#000"/>
  <ellipse cx="110" cy="110" rx="4" ry="6" fill="#000"/>
  <path d="M 85 125 Q 100 135 115 125" stroke="#000" stroke-width="2" fill="none" stroke-linecap="round"/>
  <ellipse cx="50" cy="70" rx="20" ry="30" fill="#F5E6D3"/>
  <ellipse cx="150" cy="70" rx="20" ry="30" fill="#F5E6D3"/>
  <path d="M 50 50 Q 45 45 50 40" stroke="#8B4513" stroke-width="3" fill="none" stroke-linecap="round"/>
  <path d="M 150 50 Q 155 45 150 40" stroke="#8B4513" stroke-width="3" fill="none" stroke-linecap="round"/>
</svg>
